<?xml version="1.0" encoding="utf-8"?>
<!-- Generator: Adobe Illustrator 19.2.0, SVG Export Plug-In . SVG Version: 6.00 Build 0)  -->
<svg version="1.1" id="Layer_1" xmlns="http://www.w3.org/2000/svg" xmlns:xlink="http://www.w3.org/1999/xlink" x="0px" y="0px"
	 viewBox="0 0 340.8 47.7" style="enable-background:new 0 0 340.8 47.7;" xml:space="preserve">
<style type="text/css">
	.st0{fill:none;}
	.st1{fill:#FE0000;}
	.st2{fill:#F2F2F2;}
	.st3{fill:url(#SVGID_5_);}
	.st4{fill:url(#New_Pattern_Swatch_1);}
	.st5{fill:url(#SVGID_6_);}
	.st6{fill:url(#SVGID_7_);}
	.st7{fill:url(#SVGID_8_);}
	.st8{fill:url(#SVGID_9_);}
	.st9{fill:url(#SVGID_10_);}
	.st10{fill:url(#SVGID_11_);}
	.st11{fill:url(#SVGID_12_);}
	.st12{fill:url(#SVGID_13_);}
	.st13{fill:url(#SVGID_14_);}
	.st14{fill:url(#SVGID_15_);}
	.st15{fill:url(#SVGID_16_);}
	.st16{fill:#FFFFFF;}
	.st17{fill:#171695;}
	.st18{opacity:0.25;fill:url(#SVGID_17_);}
	.st19{opacity:0.25;fill:url(#SVGID_18_);}
	.st20{fill:none;stroke:#FFFFFF;stroke-width:4;stroke-miterlimit:10;}
	.st21{fill:url(#SVGID_19_);}
	.st22{fill:url(#SVGID_20_);}
	.st23{fill:url(#SVGID_21_);}
	.st24{fill:url(#SVGID_22_);}
	.st25{fill:url(#SVGID_23_);}
	.st26{fill:url(#SVGID_24_);}
	.st27{fill:url(#SVGID_25_);}
	.st28{fill:url(#SVGID_26_);}
	.st29{fill:url(#SVGID_27_);}
	.st30{fill:url(#SVGID_28_);}
	.st31{fill:url(#SVGID_29_);}
	.st32{fill:url(#SVGID_30_);}
	.st33{fill:url(#SVGID_31_);}
	.st34{fill:url(#SVGID_32_);}
	.st35{fill:url(#SVGID_33_);}
	.st36{fill:url(#SVGID_34_);}
	.st37{fill:url(#SVGID_35_);}
	.st38{fill:url(#SVGID_36_);}
	.st39{fill:url(#SVGID_37_);}
	.st40{fill:url(#SVGID_38_);}
	.st41{fill:url(#SVGID_39_);}
	.st42{fill:url(#SVGID_40_);}
	.st43{fill:url(#SVGID_41_);}
	.st44{fill:url(#SVGID_42_);}
	.st45{fill:url(#SVGID_43_);}
	.st46{fill:url(#SVGID_44_);}
	.st47{fill:url(#SVGID_45_);}
	.st48{fill:url(#SVGID_46_);}
	.st49{fill:url(#SVGID_47_);}
	.st50{fill:url(#SVGID_48_);}
	.st51{fill:url(#SVGID_49_);}
	.st52{fill:url(#SVGID_50_);}
	.st53{fill:url(#SVGID_51_);}
	.st54{fill:url(#SVGID_52_);}
	.st55{fill:url(#SVGID_53_);}
	.st56{fill:url(#SVGID_54_);}
	.st57{fill:url(#SVGID_55_);}
	.st58{fill:url(#SVGID_56_);}
	.st59{fill:url(#SVGID_57_);}
	.st60{fill:url(#SVGID_58_);}
	.st61{fill:url(#SVGID_59_);}
	.st62{fill:url(#SVGID_60_);}
	.st63{fill:url(#SVGID_61_);}
	.st64{fill:url(#SVGID_62_);}
	.st65{fill:url(#SVGID_63_);}
	.st66{fill:url(#SVGID_64_);}
	.st67{fill:url(#SVGID_65_);}
	.st68{fill:url(#SVGID_66_);}
	.st69{fill:url(#SVGID_67_);}
	.st70{fill:url(#SVGID_68_);}
	.st71{fill:url(#SVGID_69_);}
	.st72{fill:url(#SVGID_70_);}
	.st73{fill:url(#SVGID_71_);}
	.st74{fill:url(#SVGID_72_);}
	.st75{fill:url(#SVGID_73_);}
	.st76{fill:url(#SVGID_74_);}
	.st77{fill:url(#SVGID_75_);}
	.st78{fill:url(#SVGID_76_);}
	.st79{fill:url(#SVGID_77_);}
	.st80{fill:url(#SVGID_78_);}
	.st81{fill:url(#SVGID_79_);}
	.st82{fill:url(#SVGID_80_);}
	.st83{fill:url(#SVGID_81_);}
	.st84{fill:url(#SVGID_82_);}
	.st85{fill:url(#SVGID_83_);}
	.st86{fill:url(#SVGID_84_);}
	.st87{opacity:0.25;fill:url(#SVGID_85_);}
	.st88{fill:url(#SVGID_88_);}
	.st89{fill:url(#SVGID_89_);}
	.st90{fill:url(#SVGID_90_);}
	.st91{fill:url(#SVGID_91_);}
	.st92{fill:url(#SVGID_92_);}
	.st93{fill:url(#SVGID_93_);}
	.st94{fill:url(#SVGID_94_);}
	.st95{fill:url(#SVGID_95_);}
	.st96{fill:url(#SVGID_96_);}
	.st97{fill:url(#SVGID_97_);}
	.st98{fill:url(#SVGID_98_);}
	.st99{fill:#999999;}
	.st100{fill:url(#SVGID_101_);}
	.st101{fill:url(#SVGID_104_);}
	.st102{opacity:0.25;fill:url(#SVGID_105_);}
	.st103{fill:none;stroke:#000000;stroke-miterlimit:10;}
	.st104{opacity:0.25;fill:url(#SVGID_106_);}
</style>
<pattern  x="-111.8" y="519.5" width="112.8" height="112.8" patternUnits="userSpaceOnUse" id="New_Pattern_Swatch_1" viewBox="0 -112.8 112.8 112.8" style="overflow:visible;">
	<g>
		<rect y="-112.8" class="st0" width="112.8" height="112.8"/>
		<rect x="0" y="-112.8" class="st1" width="112.8" height="112.8"/>
	</g>
</pattern>
<g>
	<g>
		<path class="st17" d="M73.9,18.6c0,0.6-0.1,1.1-0.4,1.5c-0.2,0.4-0.6,0.8-1,1.1s-0.9,0.5-1.5,0.7c-0.6,0.2-1.2,0.2-1.8,0.2H62V8.4
			h7.8c0.5,0,1,0.1,1.4,0.3c0.4,0.2,0.8,0.5,1.1,0.8c0.3,0.3,0.5,0.7,0.7,1.1c0.2,0.4,0.2,0.8,0.2,1.3c0,0.7-0.2,1.3-0.5,1.9
			c-0.4,0.6-0.9,1-1.6,1.3c0.9,0.2,1.5,0.7,2,1.3C73.6,16.9,73.9,17.7,73.9,18.6z M64.5,10.5v3.7h4.3c0.6,0,1.1-0.2,1.4-0.5
			c0.4-0.3,0.6-0.8,0.6-1.3c0-0.6-0.2-1-0.5-1.3c-0.4-0.3-0.8-0.5-1.3-0.5H64.5z M71.4,18.1c0-0.5-0.2-1-0.6-1.4
			c-0.4-0.4-0.9-0.6-1.4-0.6h-4.9V20h4.7c0.6,0,1.1-0.2,1.5-0.6C71.1,19.1,71.4,18.6,71.4,18.1z"/>
		<path class="st17" d="M77.2,22.1V8.4h6.6c0.7,0,1.3,0.1,1.9,0.4c0.6,0.3,1.1,0.6,1.5,1c0.4,0.4,0.7,0.9,1,1.4
			c0.2,0.5,0.3,1.1,0.3,1.6c0,0.4-0.1,0.9-0.2,1.3c-0.1,0.4-0.3,0.8-0.6,1.2c-0.3,0.4-0.6,0.7-0.9,0.9c-0.4,0.3-0.8,0.5-1.2,0.6
			l3.6,5.2h-2.8l-3.3-4.7h-3.4v4.7H77.2z M79.7,15.3h4.1c0.7,0,1.2-0.2,1.6-0.7c0.4-0.5,0.6-1,0.6-1.7c0-0.3-0.1-0.6-0.2-0.9
			c-0.1-0.3-0.3-0.5-0.5-0.7c-0.2-0.2-0.5-0.4-0.8-0.5c-0.3-0.1-0.6-0.2-0.9-0.2h-4V15.3z"/>
		<path class="st17" d="M92.3,22.1V8.4h2.4v13.7H92.3z"/>
		<path class="st17" d="M110.1,10.5h-5v11.5h-2.5V10.5h-5V8.4h12.5V10.5z"/>
		<path class="st17" d="M113,22.1V8.4h2.4v13.7H113z"/>
		<path class="st17" d="M128.5,11.8c-0.2-0.1-0.4-0.3-0.7-0.5c-0.3-0.2-0.6-0.3-0.9-0.5c-0.3-0.1-0.7-0.3-1.1-0.3
			c-0.4-0.1-0.8-0.1-1.3-0.1c-1,0-1.7,0.2-2.1,0.5c-0.5,0.3-0.7,0.7-0.7,1.2c0,0.3,0.1,0.5,0.2,0.7s0.4,0.4,0.7,0.5
			c0.3,0.1,0.7,0.3,1.1,0.4s1,0.3,1.6,0.4c0.7,0.2,1.4,0.4,2,0.6c0.6,0.2,1.1,0.4,1.5,0.8c0.4,0.3,0.7,0.7,1,1.1
			c0.2,0.4,0.3,1,0.3,1.6c0,0.7-0.1,1.3-0.4,1.9c-0.3,0.5-0.7,0.9-1.2,1.2c-0.5,0.3-1.1,0.6-1.7,0.7c-0.7,0.1-1.4,0.2-2.1,0.2
			c-1.1,0-2.2-0.2-3.3-0.5c-1.1-0.3-2-0.8-2.8-1.3l1.1-2.1c0.2,0.2,0.5,0.4,0.8,0.6c0.3,0.2,0.7,0.4,1.2,0.6
			c0.4,0.2,0.9,0.3,1.4,0.4c0.5,0.1,1.1,0.2,1.6,0.2c0.9,0,1.5-0.1,2-0.4c0.5-0.3,0.7-0.7,0.7-1.2c0-0.3-0.1-0.6-0.3-0.8
			c-0.2-0.2-0.4-0.4-0.8-0.6c-0.3-0.2-0.8-0.3-1.3-0.4c-0.5-0.1-1.1-0.3-1.7-0.4c-0.7-0.2-1.4-0.4-1.9-0.6c-0.5-0.2-1-0.5-1.4-0.8
			c-0.4-0.3-0.6-0.6-0.8-1c-0.2-0.4-0.3-0.9-0.3-1.4c0-0.7,0.1-1.3,0.4-1.8c0.3-0.5,0.7-1,1.1-1.3c0.5-0.4,1.1-0.6,1.7-0.8
			c0.7-0.2,1.4-0.3,2.1-0.3c1,0,2,0.1,2.8,0.4c0.8,0.3,1.6,0.7,2.2,1.1L128.5,11.8z"/>
		<path class="st17" d="M145.9,8.4v13.7h-2.5v-5.9h-7.5v5.9h-2.4V8.4h2.4V14h7.5V8.4H145.9z"/>
		<path class="st17" d="M155.9,15.1c0-0.8,0.2-1.6,0.5-2.5c0.3-0.8,0.8-1.5,1.4-2.2c0.6-0.6,1.4-1.2,2.3-1.6
			c0.9-0.4,1.9-0.6,3.1-0.6c1.3,0,2.5,0.3,3.5,0.8c1,0.6,1.7,1.3,2.2,2.2l-1.9,1.3c-0.2-0.4-0.4-0.7-0.7-1c-0.3-0.3-0.6-0.5-1-0.6
			c-0.3-0.2-0.7-0.3-1.1-0.3c-0.4-0.1-0.7-0.1-1.1-0.1c-0.8,0-1.4,0.1-2,0.4c-0.6,0.3-1.1,0.6-1.4,1.1c-0.4,0.4-0.7,1-0.9,1.5
			c-0.2,0.6-0.3,1.1-0.3,1.7c0,0.6,0.1,1.2,0.3,1.8c0.2,0.6,0.6,1.1,1,1.5c0.4,0.4,0.9,0.8,1.5,1.1c0.6,0.3,1.2,0.4,1.9,0.4
			c0.4,0,0.7,0,1.1-0.1c0.4-0.1,0.7-0.2,1.1-0.4c0.3-0.2,0.7-0.4,1-0.7c0.3-0.3,0.5-0.6,0.7-1l2.1,1.2c-0.2,0.5-0.6,1-1,1.4
			c-0.4,0.4-0.9,0.7-1.5,1c-0.5,0.3-1.1,0.5-1.7,0.6c-0.6,0.1-1.2,0.2-1.8,0.2c-1,0-2-0.2-2.9-0.6c-0.9-0.4-1.6-1-2.2-1.6
			c-0.6-0.7-1.1-1.4-1.5-2.3C156.1,16.9,155.9,16,155.9,15.1z"/>
		<path class="st17" d="M172.2,22.1V8.4h6.6c0.7,0,1.3,0.1,1.9,0.4c0.6,0.3,1.1,0.6,1.5,1c0.4,0.4,0.7,0.9,1,1.4
			c0.2,0.5,0.3,1.1,0.3,1.6c0,0.4-0.1,0.9-0.2,1.3c-0.1,0.4-0.3,0.8-0.6,1.2c-0.3,0.4-0.6,0.7-0.9,0.9c-0.4,0.3-0.8,0.5-1.2,0.6
			l3.6,5.2h-2.8l-3.3-4.7h-3.4v4.7H172.2z M174.6,15.3h4.1c0.7,0,1.2-0.2,1.6-0.7c0.4-0.5,0.6-1,0.6-1.7c0-0.3-0.1-0.6-0.2-0.9
			s-0.3-0.5-0.5-0.7c-0.2-0.2-0.5-0.4-0.8-0.5s-0.6-0.2-0.9-0.2h-4V15.3z"/>
		<path class="st17" d="M193.4,22.2c-1.1,0-2-0.2-2.9-0.6c-0.9-0.4-1.6-0.9-2.2-1.6c-0.6-0.7-1.1-1.4-1.5-2.2
			c-0.3-0.8-0.5-1.7-0.5-2.6c0-0.9,0.2-1.8,0.5-2.6c0.4-0.8,0.9-1.6,1.5-2.2c0.6-0.6,1.4-1.2,2.3-1.5c0.9-0.4,1.8-0.6,2.9-0.6
			c1.1,0,2,0.2,2.9,0.6c0.9,0.4,1.6,0.9,2.2,1.6c0.6,0.7,1.1,1.4,1.4,2.2c0.3,0.8,0.5,1.7,0.5,2.5c0,0.9-0.2,1.8-0.5,2.6
			c-0.4,0.8-0.9,1.6-1.5,2.2c-0.6,0.6-1.4,1.2-2.3,1.5C195.4,22,194.4,22.2,193.4,22.2z M188.8,15.2c0,0.6,0.1,1.2,0.3,1.8
			c0.2,0.6,0.5,1.1,0.9,1.5c0.4,0.4,0.9,0.8,1.5,1.1c0.6,0.3,1.2,0.4,2,0.4c0.7,0,1.4-0.1,2-0.4c0.6-0.3,1.1-0.6,1.5-1.1
			c0.4-0.4,0.7-1,0.9-1.5c0.2-0.6,0.3-1.1,0.3-1.7c0-0.6-0.1-1.2-0.3-1.8c-0.2-0.6-0.5-1.1-0.9-1.5c-0.4-0.4-0.9-0.8-1.5-1
			c-0.6-0.3-1.2-0.4-1.9-0.4c-0.7,0-1.4,0.1-2,0.4c-0.6,0.3-1.1,0.6-1.5,1.1c-0.4,0.4-0.7,1-0.9,1.5
			C188.9,14.1,188.8,14.7,188.8,15.2z"/>
		<path class="st17" d="M201.8,22.1l6.1-13.7h2l6.1,13.7h-2.6l-1.6-3.6H206l-1.6,3.6H201.8z M208.9,11.4l-2.3,5h4.6L208.9,11.4z"/>
		<path class="st17" d="M228.4,10.5h-5v11.5h-2.5V10.5h-5V8.4h12.5V10.5z"/>
		<path class="st17" d="M231.3,22.1V8.4h2.4v13.7H231.3z"/>
		<path class="st17" d="M236.4,22.1l6.1-13.7h2l6.1,13.7h-2.6l-1.6-3.6h-5.8l-1.6,3.6H236.4z M243.5,11.4l-2.3,5h4.6L243.5,11.4z"/>
		<path class="st17" d="M255.7,12.9v9.1h-2.4V8.4h1.9l8.6,9.3V8.4h2.5v13.7h-2L255.7,12.9z"/>
		<path class="st17" d="M61.1,39.8c0-0.8,0.2-1.6,0.5-2.5c0.3-0.8,0.8-1.5,1.4-2.2c0.6-0.6,1.4-1.2,2.3-1.6c0.9-0.4,1.9-0.6,3.1-0.6
			c1.4,0,2.5,0.3,3.5,0.8c1,0.6,1.7,1.3,2.2,2.2l-1.9,1.3c-0.2-0.4-0.4-0.7-0.7-1c-0.3-0.3-0.6-0.5-1-0.6c-0.3-0.2-0.7-0.3-1.1-0.3
			c-0.4-0.1-0.7-0.1-1.1-0.1c-0.8,0-1.4,0.1-2,0.4c-0.6,0.3-1.1,0.6-1.4,1.1c-0.4,0.4-0.7,1-0.9,1.5c-0.2,0.6-0.3,1.1-0.3,1.7
			c0,0.6,0.1,1.2,0.3,1.8c0.2,0.6,0.6,1.1,1,1.5c0.4,0.4,0.9,0.8,1.5,1.1c0.6,0.3,1.2,0.4,1.9,0.4c0.4,0,0.7,0,1.1-0.1
			c0.4-0.1,0.7-0.2,1.1-0.4c0.3-0.2,0.7-0.4,1-0.7s0.5-0.6,0.7-1l2.1,1.2c-0.2,0.5-0.6,1-1,1.4c-0.4,0.4-0.9,0.7-1.5,1
			c-0.5,0.3-1.1,0.5-1.7,0.6c-0.6,0.1-1.2,0.2-1.8,0.2c-1,0-2-0.2-2.9-0.6c-0.9-0.4-1.6-1-2.2-1.6c-0.6-0.7-1.1-1.4-1.5-2.3
			C61.3,41.6,61.1,40.7,61.1,39.8z"/>
		<path class="st17" d="M89.8,33.1v13.7h-2.5v-5.9h-7.5v5.9h-2.4V33.1h2.4v5.6h7.5v-5.6H89.8z"/>
		<path class="st17" d="M92.4,46.8l6.1-13.7h2l6.1,13.7H104l-1.6-3.6h-5.8l-1.6,3.6H92.4z M99.5,36.1l-2.3,5h4.6L99.5,36.1z"/>
		<path class="st17" d="M122,46.8v-9.4l-4.4,7h-1.4l-4.4-7v9.4h-2.4V33.1h2.6l4.9,8l4.9-8h2.6v13.7H122z"/>
		<path class="st17" d="M140.5,43.3c0,0.6-0.1,1.1-0.4,1.5c-0.2,0.4-0.6,0.8-1,1.1c-0.4,0.3-0.9,0.5-1.5,0.7
			c-0.6,0.2-1.2,0.2-1.8,0.2h-7.2V33.1h7.8c0.5,0,1,0.1,1.4,0.3c0.4,0.2,0.8,0.5,1.1,0.8c0.3,0.3,0.5,0.7,0.7,1.1
			c0.2,0.4,0.2,0.8,0.2,1.3c0,0.7-0.2,1.3-0.5,1.9c-0.4,0.6-0.9,1-1.6,1.3c0.9,0.2,1.5,0.7,2,1.3C140.3,41.6,140.5,42.4,140.5,43.3z
			 M131.1,35.2v3.7h4.3c0.6,0,1.1-0.2,1.4-0.5c0.4-0.3,0.6-0.8,0.6-1.3c0-0.6-0.2-1-0.5-1.3c-0.4-0.3-0.8-0.5-1.3-0.5H131.1z
			 M138,42.8c0-0.5-0.2-1-0.6-1.4c-0.4-0.4-0.9-0.6-1.4-0.6h-4.9v3.9h4.7c0.6,0,1.1-0.2,1.5-0.6C137.8,43.8,138,43.3,138,42.8z"/>
		<path class="st17" d="M154.3,44.6v2.2h-10.4V33.1h10.2v2.2h-7.8v3.6h6.7v2h-6.7v3.8H154.3z"/>
		<path class="st17" d="M157.7,46.8V33.1h6.6c0.7,0,1.3,0.1,1.9,0.4c0.6,0.3,1.1,0.6,1.5,1c0.4,0.4,0.7,0.9,1,1.4
			c0.2,0.5,0.3,1.1,0.3,1.6c0,0.4-0.1,0.9-0.2,1.3c-0.1,0.4-0.3,0.8-0.6,1.2c-0.3,0.4-0.6,0.7-0.9,0.9c-0.4,0.3-0.8,0.5-1.2,0.6
			l3.6,5.2h-2.8l-3.3-4.7h-3.4v4.7H157.7z M160.1,40h4.1c0.7,0,1.2-0.2,1.6-0.7c0.4-0.5,0.6-1,0.6-1.7c0-0.3-0.1-0.6-0.2-0.9
			s-0.3-0.5-0.5-0.7c-0.2-0.2-0.5-0.4-0.8-0.5c-0.3-0.1-0.6-0.2-0.9-0.2h-4V40z"/>
		<path class="st17" d="M185.6,46.9c-1.1,0-2-0.2-2.9-0.6c-0.9-0.4-1.6-0.9-2.2-1.6c-0.6-0.7-1.1-1.4-1.5-2.2
			c-0.3-0.8-0.5-1.7-0.5-2.6c0-0.9,0.2-1.8,0.5-2.6c0.4-0.8,0.9-1.6,1.5-2.2c0.6-0.6,1.4-1.2,2.3-1.5c0.9-0.4,1.8-0.6,2.9-0.6
			c1.1,0,2,0.2,2.9,0.6c0.9,0.4,1.6,0.9,2.2,1.6c0.6,0.7,1.1,1.4,1.4,2.2c0.3,0.8,0.5,1.7,0.5,2.5c0,0.9-0.2,1.8-0.5,2.6
			c-0.4,0.8-0.9,1.6-1.5,2.2c-0.6,0.6-1.4,1.2-2.3,1.5C187.6,46.7,186.7,46.9,185.6,46.9z M181,39.9c0,0.6,0.1,1.2,0.3,1.8
			c0.2,0.6,0.5,1.1,0.9,1.5c0.4,0.4,0.9,0.8,1.5,1.1c0.6,0.3,1.2,0.4,2,0.4c0.7,0,1.4-0.1,2-0.4c0.6-0.3,1.1-0.6,1.5-1.1
			c0.4-0.4,0.7-1,0.9-1.5c0.2-0.6,0.3-1.1,0.3-1.7c0-0.6-0.1-1.2-0.3-1.8c-0.2-0.6-0.5-1.1-0.9-1.5c-0.4-0.4-0.9-0.8-1.5-1
			c-0.6-0.3-1.2-0.4-1.9-0.4c-0.7,0-1.4,0.1-2,0.4c-0.6,0.3-1.1,0.6-1.5,1.1c-0.4,0.4-0.7,1-0.9,1.5C181.1,38.8,181,39.4,181,39.9z"
			/>
		<path class="st17" d="M196.1,46.8V33.1h10.1v2.2h-7.6V39h6.4v2h-6.4v5.8H196.1z"/>
		<path class="st17" d="M214.7,39.8c0-0.8,0.2-1.6,0.5-2.5c0.3-0.8,0.8-1.5,1.4-2.2c0.6-0.6,1.4-1.2,2.3-1.6
			c0.9-0.4,1.9-0.6,3.1-0.6c1.4,0,2.5,0.3,3.5,0.8c1,0.6,1.7,1.3,2.2,2.2l-1.9,1.3c-0.2-0.4-0.4-0.7-0.7-1c-0.3-0.3-0.6-0.5-1-0.6
			c-0.3-0.2-0.7-0.3-1.1-0.3c-0.4-0.1-0.7-0.1-1.1-0.1c-0.8,0-1.4,0.1-2,0.4c-0.6,0.3-1.1,0.6-1.4,1.1c-0.4,0.4-0.7,1-0.9,1.5
			c-0.2,0.6-0.3,1.1-0.3,1.7c0,0.6,0.1,1.2,0.3,1.8c0.2,0.6,0.6,1.1,1,1.5c0.4,0.4,0.9,0.8,1.5,1.1c0.6,0.3,1.2,0.4,1.9,0.4
			c0.4,0,0.7,0,1.1-0.1c0.4-0.1,0.7-0.2,1.1-0.4c0.3-0.2,0.7-0.4,1-0.7s0.5-0.6,0.7-1l2.1,1.2c-0.2,0.5-0.6,1-1,1.4
			c-0.4,0.4-0.9,0.7-1.5,1c-0.5,0.3-1.1,0.5-1.7,0.6c-0.6,0.1-1.2,0.2-1.8,0.2c-1,0-2-0.2-2.9-0.6s-1.6-1-2.2-1.6
			c-0.6-0.7-1.1-1.4-1.5-2.3C214.8,41.6,214.7,40.7,214.7,39.8z"/>
		<path class="st17" d="M236.9,46.9c-1.1,0-2-0.2-2.9-0.6c-0.9-0.4-1.6-0.9-2.2-1.6c-0.6-0.7-1.1-1.4-1.5-2.2s-0.5-1.7-0.5-2.6
			c0-0.9,0.2-1.8,0.5-2.6c0.4-0.8,0.9-1.6,1.5-2.2c0.6-0.6,1.4-1.2,2.3-1.5C235,33.2,236,33,237,33c1.1,0,2,0.2,2.9,0.6
			c0.9,0.4,1.6,0.9,2.2,1.6c0.6,0.7,1.1,1.4,1.4,2.2c0.3,0.8,0.5,1.7,0.5,2.5c0,0.9-0.2,1.8-0.5,2.6c-0.4,0.8-0.9,1.6-1.5,2.2
			c-0.6,0.6-1.4,1.2-2.3,1.5C238.9,46.7,238,46.9,236.9,46.9z M232.3,39.9c0,0.6,0.1,1.2,0.3,1.8c0.2,0.6,0.5,1.1,0.9,1.5
			c0.4,0.4,0.9,0.8,1.5,1.1c0.6,0.3,1.2,0.4,2,0.4c0.7,0,1.4-0.1,2-0.4c0.6-0.3,1.1-0.6,1.5-1.1c0.4-0.4,0.7-1,0.9-1.5
			c0.2-0.6,0.3-1.1,0.3-1.7c0-0.6-0.1-1.2-0.3-1.8c-0.2-0.6-0.5-1.1-0.9-1.5c-0.4-0.4-0.9-0.8-1.5-1c-0.6-0.3-1.2-0.4-1.9-0.4
			c-0.7,0-1.4,0.1-2,0.4c-0.6,0.3-1.1,0.6-1.5,1.1c-0.4,0.4-0.7,1-0.9,1.5C232.4,38.8,232.3,39.4,232.3,39.9z"/>
		<path class="st17" d="M260.1,46.8v-9.4l-4.4,7h-1.4l-4.4-7v9.4h-2.4V33.1h2.6l4.9,8l4.9-8h2.6v13.7H260.1z"/>
		<path class="st17" d="M279.5,46.8v-9.4l-4.4,7h-1.4l-4.4-7v9.4h-2.4V33.1h2.6l4.9,8l4.9-8h2.6v13.7H279.5z"/>
		<path class="st17" d="M296.7,44.6v2.2h-10.4V33.1h10.2v2.2h-7.8v3.6h6.7v2h-6.7v3.8H296.7z"/>
		<path class="st17" d="M300,46.8V33.1h6.6c0.7,0,1.3,0.1,1.9,0.4c0.6,0.3,1.1,0.6,1.5,1c0.4,0.4,0.7,0.9,1,1.4
			c0.2,0.5,0.3,1.1,0.3,1.6c0,0.4-0.1,0.9-0.2,1.3c-0.1,0.4-0.3,0.8-0.6,1.2c-0.3,0.4-0.6,0.7-0.9,0.9c-0.4,0.3-0.8,0.5-1.2,0.6
			l3.6,5.2h-2.8l-3.3-4.7h-3.4v4.7H300z M302.5,40h4.1c0.7,0,1.2-0.2,1.6-0.7c0.4-0.5,0.6-1,0.6-1.7c0-0.3-0.1-0.6-0.2-0.9
			s-0.3-0.5-0.5-0.7c-0.2-0.2-0.5-0.4-0.8-0.5c-0.3-0.1-0.6-0.2-0.9-0.2h-4V40z"/>
		<path class="st17" d="M314.2,39.8c0-0.8,0.2-1.6,0.5-2.5c0.3-0.8,0.8-1.5,1.4-2.2c0.6-0.6,1.4-1.2,2.3-1.6
			c0.9-0.4,1.9-0.6,3.1-0.6c1.3,0,2.5,0.3,3.5,0.8c1,0.6,1.7,1.3,2.2,2.2l-1.9,1.3c-0.2-0.4-0.4-0.7-0.7-1c-0.3-0.3-0.6-0.5-1-0.6
			c-0.3-0.2-0.7-0.3-1.1-0.3c-0.4-0.1-0.7-0.1-1.1-0.1c-0.8,0-1.5,0.1-2,0.4c-0.6,0.3-1.1,0.6-1.4,1.1c-0.4,0.4-0.7,1-0.9,1.5
			c-0.2,0.6-0.3,1.1-0.3,1.7c0,0.6,0.1,1.2,0.3,1.8c0.2,0.6,0.6,1.1,1,1.5c0.4,0.4,0.9,0.8,1.5,1.1c0.6,0.3,1.2,0.4,1.9,0.4
			c0.4,0,0.7,0,1.1-0.1c0.4-0.1,0.7-0.2,1.1-0.4c0.3-0.2,0.7-0.4,1-0.7s0.5-0.6,0.7-1l2.1,1.2c-0.2,0.5-0.6,1-1,1.4
			c-0.4,0.4-0.9,0.7-1.5,1c-0.5,0.3-1.1,0.5-1.7,0.6c-0.6,0.1-1.2,0.2-1.8,0.2c-1,0-2-0.2-2.9-0.6c-0.9-0.4-1.6-1-2.2-1.6
			s-1.1-1.4-1.5-2.3C314.3,41.6,314.2,40.7,314.2,39.8z"/>
		<path class="st17" d="M340.8,44.6v2.2h-10.4V33.1h10.2v2.2h-7.8v3.6h6.7v2h-6.7v3.8H340.8z"/>
	</g>
	<g>
		<g>
			<rect class="st4" width="21.9" height="21.9"/>
		</g>
		<polygon class="st17" points="49.9,47.7 8.1,47.7 49.9,5.9 		"/>
	</g>
</g>
</svg>
