<?xml version="1.0" encoding="utf-8"?>
<!-- Generator: Adobe Illustrator 19.2.0, SVG Export Plug-In . SVG Version: 6.00 Build 0)  -->
<svg version="1.1" xmlns="http://www.w3.org/2000/svg" xmlns:xlink="http://www.w3.org/1999/xlink" x="0px" y="0px"
	 viewBox="0 0 418.9 535.4" style="enable-background:new 0 0 418.9 535.4;" xml:space="preserve">
<style type="text/css">
	.st0{fill:#FFFFFF;}
	.st1{fill:none;stroke:#00FFFF;stroke-width:30;stroke-miterlimit:10;}
	.st2{opacity:0.25;fill:url(#SVGID_11_);}
	.st3{opacity:0.25;fill:url(#SVGID_12_);}
	.st4{opacity:0.25;fill:url(#SVGID_13_);}
	.st5{opacity:0.25;fill:url(#SVGID_14_);}
	.st6{opacity:0.25;fill:url(#SVGID_15_);}
	.st7{opacity:0.25;fill:url(#SVGID_16_);}
	.st8{opacity:0.25;fill:url(#SVGID_17_);}
	.st9{opacity:0.25;fill:url(#SVGID_18_);}
	.st10{fill:none;stroke:#CCCCCC;stroke-miterlimit:10;}
	.st11{fill:#715DFF;}
	.st12{fill:#00FFFF;}
	.st13{fill:#E6E6E6;}
	.st14{fill:none;stroke:#00FFFF;stroke-width:4;stroke-linecap:round;stroke-linejoin:round;stroke-miterlimit:10;}
	.st15{fill:none;stroke:#00FFFF;stroke-width:4;stroke-miterlimit:10;}
	.st16{fill:#171695;}
	.st17{fill:none;stroke:#FF0000;stroke-width:3;stroke-linecap:round;stroke-linejoin:round;stroke-miterlimit:10;}
	.st18{fill:#999999;}
	.st19{fill:none;stroke:#FFFFFF;stroke-width:1.5;stroke-linecap:round;stroke-linejoin:round;stroke-miterlimit:10;}
	.st20{fill:#00FFFF;stroke:#00FFFF;stroke-linecap:round;stroke-linejoin:round;stroke-miterlimit:10;}
	.st21{fill:#837CFF;}
	.st22{fill:none;stroke:#FFFFFF;stroke-width:4;stroke-linecap:round;stroke-linejoin:round;stroke-miterlimit:10;}
	.st23{fill:#715DFF;stroke:#00FFFF;stroke-width:2;stroke-miterlimit:10;}
	.st24{fill:#00FFFF;stroke:#00FFFF;stroke-width:2;stroke-miterlimit:10;}
</style>
<g id="BG">
	<g>
		<polyline class="st1" points="76.9,87.7 19.3,241.7 126.1,281.7 104,337.9 165.9,361.1 135.9,441.4 		"/>
		<polyline class="st1" points="239.9,264.6 224.5,230.8 169.5,210.2 196.1,139.1 		"/>
		<polyline class="st1" points="250,110.8 356.3,150.5 405.3,257.9 		"/>
		<path class="st1" d="M126.9,69.8c-7.8,21-31.2,31.6-52.2,23.8c-21-7.8-31.6-31.2-23.8-52.2c7.8-21,31.2-31.6,52.2-23.8
			C124.1,25.4,134.7,48.8,126.9,69.8z"/>
		<path class="st1" d="M248.3,115.3c-7.8,21-31.2,31.6-52.2,23.8c-21-7.8-31.6-31.2-23.8-52.2c7.8-21,31.2-31.6,52.2-23.8
			C245.5,71,256.1,94.3,248.3,115.3z"/>
		<path class="st1" d="M160.7,494c-7.8,21-31.2,31.6-52.2,23.8c-21-7.8-31.6-31.2-23.8-52.2c7.8-21,31.2-31.6,52.2-23.8
			C157.9,449.7,168.6,473.1,160.7,494z"/>
		<path class="st1" d="M299.1,313.4c-7.8,21-31.2,31.6-52.2,23.8c-21-7.8-31.6-31.2-23.8-52.2c7.8-21,31.2-31.6,52.2-23.8
			C296.3,269,307,292.4,299.1,313.4z"/>
	</g>
</g>
<g id="Layer_1">
</g>
<g id="Layer_3">
</g>
</svg>
