<?xml version="1.0" encoding="utf-8"?>
<!-- Generator: Adobe Illustrator 19.2.0, SVG Export Plug-In . SVG Version: 6.00 Build 0)  -->
<svg version="1.1" xmlns="http://www.w3.org/2000/svg" xmlns:xlink="http://www.w3.org/1999/xlink" x="0px" y="0px"
	 viewBox="0 0 325.5 402.2" style="enable-background:new 0 0 325.5 402.2;" xml:space="preserve">
<style type="text/css">
	.st0{fill:#FFFFFF;}
	.st1{fill:none;stroke:#00FFFF;stroke-width:30;stroke-miterlimit:10;}
	.st2{opacity:0.25;fill:url(#SVGID_11_);}
	.st3{opacity:0.25;fill:url(#SVGID_12_);}
	.st4{opacity:0.25;fill:url(#SVGID_13_);}
	.st5{opacity:0.25;fill:url(#SVGID_14_);}
	.st6{opacity:0.25;fill:url(#SVGID_15_);}
	.st7{opacity:0.25;fill:url(#SVGID_16_);}
	.st8{opacity:0.25;fill:url(#SVGID_17_);}
	.st9{opacity:0.25;fill:url(#SVGID_18_);}
	.st10{fill:none;stroke:#CCCCCC;stroke-miterlimit:10;}
	.st11{fill:#715DFF;}
	.st12{fill:#00FFFF;}
	.st13{fill:#E6E6E6;}
	.st14{fill:none;stroke:#00FFFF;stroke-width:4;stroke-linecap:round;stroke-linejoin:round;stroke-miterlimit:10;}
	.st15{fill:none;stroke:#00FFFF;stroke-width:4;stroke-miterlimit:10;}
	.st16{fill:#171695;}
	.st17{fill:none;stroke:#FF0000;stroke-width:3;stroke-linecap:round;stroke-linejoin:round;stroke-miterlimit:10;}
	.st18{fill:#999999;}
	.st19{fill:none;stroke:#FFFFFF;stroke-width:1.5;stroke-linecap:round;stroke-linejoin:round;stroke-miterlimit:10;}
	.st20{fill:#00FFFF;stroke:#00FFFF;stroke-linecap:round;stroke-linejoin:round;stroke-miterlimit:10;}
	.st21{fill:#837CFF;}
	.st22{fill:none;stroke:#FFFFFF;stroke-width:4;stroke-linecap:round;stroke-linejoin:round;stroke-miterlimit:10;}
	.st23{fill:#715DFF;stroke:#00FFFF;stroke-width:2;stroke-miterlimit:10;}
	.st24{fill:#00FFFF;stroke:#00FFFF;stroke-width:2;stroke-miterlimit:10;}
</style>
<g id="BG">
</g>
<g id="Layer_1">
	<g>
		<path class="st1" d="M73.1,252.4c10.3-18.6,21.8-32.2,34.6-40.8c12.8-8.6,32.6-15.3,59.3-20.1s43.2-8.6,49.4-11.2
			c9.6-4.3,16.9-10.9,21.8-19.7c6.8-12.3,7.7-25.6,2.7-39.8s-15.8-25.9-32.5-35.1c-16.1-8.9-32-11.7-47.9-8.5s-31,13-45.4,29.6
			L61,67.3c16.5-26,40.5-42.5,72.1-49.5s64.7-1,99.2,18.1c36.3,20.1,60,45.5,71,76.4c11,30.8,9.5,58.9-4.4,84.1
			c-7.7,14-18.9,25-33.7,33.1c-14.8,8.1-41,15.8-78.7,23c-19.5,3.7-32.7,8.1-39.7,13.1s-13,12.5-16.1,18.7L73.1,252.4z M20.4,348.3
			l32.5-58.9l60.6,33.5L81,381.8L20.4,348.3z"/>
	</g>
</g>
<g id="Layer_3">
</g>
</svg>
