<?xml version="1.0" encoding="utf-8"?>
<!-- Generator: Adobe Illustrator 19.2.0, SVG Export Plug-In . SVG Version: 6.00 Build 0)  -->
<svg version="1.1" xmlns="http://www.w3.org/2000/svg" xmlns:xlink="http://www.w3.org/1999/xlink" x="0px" y="0px"
	 viewBox="0 0 88.5 90.4" style="enable-background:new 0 0 88.5 90.4;" xml:space="preserve">
<style type="text/css">
	.st0{fill:#FFFFFF;}
	.st1{fill:none;stroke:#00FFFF;stroke-width:30;stroke-miterlimit:10;}
	.st2{opacity:0.25;fill:url(#SVGID_11_);}
	.st3{opacity:0.25;fill:url(#SVGID_12_);}
	.st4{opacity:0.25;fill:url(#SVGID_13_);}
	.st5{opacity:0.25;fill:url(#SVGID_14_);}
	.st6{opacity:0.25;fill:url(#SVGID_15_);}
	.st7{opacity:0.25;fill:url(#SVGID_16_);}
	.st8{opacity:0.25;fill:url(#SVGID_17_);}
	.st9{opacity:0.25;fill:url(#SVGID_18_);}
	.st10{fill:none;stroke:#CCCCCC;stroke-miterlimit:10;}
	.st11{fill:#715DFF;}
	.st12{fill:#00FFFF;}
	.st13{fill:#E6E6E6;}
	.st14{fill:none;stroke:#00FFFF;stroke-width:4;stroke-linecap:round;stroke-linejoin:round;stroke-miterlimit:10;}
	.st15{fill:none;stroke:#00FFFF;stroke-width:4;stroke-miterlimit:10;}
	.st16{fill:#171695;}
	.st17{fill:none;stroke:#FF0000;stroke-width:3;stroke-linecap:round;stroke-linejoin:round;stroke-miterlimit:10;}
	.st18{fill:#999999;}
	.st19{fill:none;stroke:#FFFFFF;stroke-width:1.5;stroke-linecap:round;stroke-linejoin:round;stroke-miterlimit:10;}
	.st20{fill:#00FFFF;stroke:#00FFFF;stroke-linecap:round;stroke-linejoin:round;stroke-miterlimit:10;}
	.st21{fill:#837CFF;}
	.st22{fill:none;stroke:#FFFFFF;stroke-width:4;stroke-linecap:round;stroke-linejoin:round;stroke-miterlimit:10;}
	.st23{fill:#715DFF;stroke:#00FFFF;stroke-width:2;stroke-miterlimit:10;}
	.st24{fill:#00FFFF;stroke:#00FFFF;stroke-width:2;stroke-miterlimit:10;}
</style>
<g id="BG">
</g>
<g id="Layer_1">
	<g>
		<circle class="st12" cx="44.2" cy="46.2" r="44.2"/>
		<g>
			<path class="st0" d="M84.1,27.1c-0.1-0.1-0.1-0.3-0.2-0.4c-0.1-0.2-0.2-0.3-0.3-0.5c-1.4-2.6-2.8-4.9-4.3-6.9
				c-4-5.2-9.1-9.5-15-12.5L39.6,20.8c-0.8,0.5-1.1,1.4-0.8,2.3l0.8,1.9c0.4,0.9,1.4,1.4,2.4,1l3.8-1.5c0.8-0.3,1.8,0,2.3,0.8
				l2.7,4.9c0.5,0.9,1.7,1.2,2.6,0.7c2-1.3,5.1-3.3,5.2-3.5c0.1-0.4,0.6-4.7,0.8-6.4c0-0.4,0.2-0.8,0.5-1.1l1.5-1.5
				c1.2-1.2,3.3-0.2,3.1,1.5l0,0c0,0.4,0,0.7,0.2,1l2.7,5.4c0.5,1,0,2.3-1.1,2.6L50,33.6c-1,0.3-2.1-0.4-2.3-1.4l-0.1-0.3
				c-0.2-1.3-1.8-2-2.9-1.2l-1.2,0.9c-0.5,0.4-0.8,1-0.7,1.7l0.1,1.1c0.1,0.6-0.2,1.3-0.7,1.7l-10.6,8.2c-0.2,0.1-0.4,0.2-0.6,0.3
				l-3.8,1.2c-1.2,0.4-1.7,1.7-1,2.8l1.4,2c0.2,0.3,0.3,0.7,0.3,1l0,3.1c0,0.9-0.7,1.7-1.6,1.8l-9.8,1.2c-0.9,0.1-1.6,0.9-1.6,1.8
				l-0.1,8.9c0,0.7,0.3,1.3,0.9,1.6l3.4,2c0.5,0.3,1.1,0.3,1.7,0.1l8-2.5c0.4-0.2,0.7-0.5,0.9-0.9l6.1-11c0.3-0.6,0.8-1,1.4-1.1
				l8.6-1.2c0.2,0,0.4,0,0.5,0.2l10.7,13.1c0,0.1,0.1,0.1,0.1,0.2l1.2,2.8c0.2,0.5,0.9,0.5,1.1,0l0.9-2c0.1-0.2,0.2-0.3,0.4-0.3
				l1.7-0.5L54.9,56c-0.3-0.4-0.2-1,0.1-1.4l0.1-0.1c0.5-0.6,1.4-0.7,2-0.1l11.4,13.5c1.3,1.3,3.5,0.3,3.6-1.5c0-0.3,0-0.6,0-0.9
				c0-0.8,0.5-1.5,1.3-1.7l5.5-1.7c0.6-0.2,1-0.6,1.2-1.1l2.7-7.7l4.8,2.5c0.7-3.1,1.1-6.3,1.1-9.6C88.5,39.3,86.9,32.9,84.1,27.1z"
				/>
			<path class="st0" d="M26.5,26.8l6.1,9.9c0.6,1,0.2,2.3-0.9,2.7l-6.1,2.2c-1.5,0.5-2.9-1-2.3-2.4c0.5-1.2,1-2.3,1.1-2.5
				c0.2-0.3-1.9-5.1-3.2-8.3c-0.5-1.2,0.4-2.6,1.8-2.6l2.1,0.1C25.6,26,26.2,26.3,26.5,26.8z"/>
			<path class="st0" d="M20.9,34.1l0.6,1.7c0.3,0.9-0.1,1.9-1,2.3l-3.7,1.5c-1,0.4-2.2-0.1-2.5-1.2v0c-0.2-0.6,0-1.3,0.5-1.7
				l3.1-3.2C18.8,32.5,20.5,32.9,20.9,34.1z"/>
		</g>
		<path class="st23" d="M72.5,36.5c0-4.5-3.6-8.1-8.1-8.1s-8.1,3.6-8.1,8.1c0,4.5,8.1,18.6,8.1,18.6S72.5,41,72.5,36.5"/>
		<path class="st23" d="M36.6,10.7c0-5.4-4.4-9.7-9.7-9.7s-9.7,4.4-9.7,9.7c0,5.4,9.7,22.2,9.7,22.2S36.6,16.1,36.6,10.7"/>
		<circle class="st24" cx="26.9" cy="10.7" r="3"/>
		<circle class="st24" cx="64.3" cy="36.4" r="2.5"/>
	</g>
</g>
<g id="Layer_3">
</g>
</svg>
