<?xml version="1.0" encoding="utf-8"?>
<!-- Generator: Adobe Illustrator 19.2.0, SVG Export Plug-In . SVG Version: 6.00 Build 0)  -->
<svg version="1.1" xmlns="http://www.w3.org/2000/svg" xmlns:xlink="http://www.w3.org/1999/xlink" x="0px" y="0px"
	 viewBox="0 0 375.3 462.4" style="enable-background:new 0 0 375.3 462.4;" xml:space="preserve">
<style type="text/css">
	.st0{fill:#FFFFFF;}
	.st1{fill:none;stroke:#00FFFF;stroke-width:30;stroke-miterlimit:10;}
	.st2{opacity:0.25;fill:url(#SVGID_11_);}
	.st3{opacity:0.25;fill:url(#SVGID_12_);}
	.st4{opacity:0.25;fill:url(#SVGID_13_);}
	.st5{opacity:0.25;fill:url(#SVGID_14_);}
	.st6{opacity:0.25;fill:url(#SVGID_15_);}
	.st7{opacity:0.25;fill:url(#SVGID_16_);}
	.st8{opacity:0.25;fill:url(#SVGID_17_);}
	.st9{opacity:0.25;fill:url(#SVGID_18_);}
	.st10{fill:none;stroke:#CCCCCC;stroke-miterlimit:10;}
	.st11{fill:#715DFF;}
	.st12{fill:#00FFFF;}
	.st13{fill:#E6E6E6;}
	.st14{fill:none;stroke:#00FFFF;stroke-width:4;stroke-linecap:round;stroke-linejoin:round;stroke-miterlimit:10;}
	.st15{fill:none;stroke:#00FFFF;stroke-width:4;stroke-miterlimit:10;}
	.st16{fill:#171695;}
	.st17{fill:none;stroke:#FF0000;stroke-width:3;stroke-linecap:round;stroke-linejoin:round;stroke-miterlimit:10;}
	.st18{fill:#999999;}
	.st19{fill:none;stroke:#FFFFFF;stroke-width:1.5;stroke-linecap:round;stroke-linejoin:round;stroke-miterlimit:10;}
	.st20{fill:#00FFFF;stroke:#00FFFF;stroke-linecap:round;stroke-linejoin:round;stroke-miterlimit:10;}
	.st21{fill:#837CFF;}
	.st22{fill:none;stroke:#FFFFFF;stroke-width:4;stroke-linecap:round;stroke-linejoin:round;stroke-miterlimit:10;}
	.st23{fill:#715DFF;stroke:#00FFFF;stroke-width:2;stroke-miterlimit:10;}
	.st24{fill:#00FFFF;stroke:#00FFFF;stroke-width:2;stroke-miterlimit:10;}
</style>
<g id="BG">
	<g>
		<g>
			<path class="st1" d="M205.1,91.4C114.5,67.4,34.5,145,55.3,237c6.2,27.6,4.7,54.5-7.5,80.2c-0.9,1.9-2,3.7-2.9,5.6
				c22.9,13.2,66.7,38,105.8,59.9c16.9-28.5,41.1-47.8,73.8-58.8c34-11.4,57.4-36.3,68.7-70.4C316.5,182.9,276.5,110.3,205.1,91.4z"
				/>
		</g>
		<path class="st1" d="M44.9,322.8c-5.9,11.1-20.4,38.6-26,49.8c-8.7,17.5-2.5,36.8,14.2,46.7c7.1,4.2,14.5,8,21.8,12
			c6.3,3.5,12.7,7,19.1,10.5c21.3,11.5,41.5,5.4,53.5-16.2c4.9-8.9,18.7-33.9,23.4-42.9"/>
		<line class="st1" x1="148.2" y1="2" x2="154" y2="46.1"/>
		<line class="st1" x1="277.5" y1="20.2" x2="259.8" y2="58.4"/>
		<line class="st1" x1="326.7" y1="142.3" x2="364.2" y2="129.6"/>
		<line class="st1" x1="44.4" y1="58.8" x2="72.9" y2="78.1"/>
		<line class="st1" x1="339.8" y1="228.9" x2="374.2" y2="231.4"/>
	</g>
</g>
<g id="Layer_1">
</g>
<g id="Layer_3">
</g>
</svg>
